<svg xmlns="http://www.w3.org/2000/svg" width="256" height="256"><path fill-opacity=".016" d="M0 128.004v128.004l128.25-.254 128.25-.254.254-127.75L257.008 0H0v128.004m.485.496c0 70.4.119 99.053.265 63.672.146-35.38.146-92.98 0-128C.604 29.153.485 58.1.485 128.5" fill="#1976D2" fill-rule="evenodd"/><path fill-opacity=".334" d="M100 2.5c0 2-.5 2.5-2.5 2.5S95 5.5 95 7.5s-.5 2.5-2.5 2.5c-2.111 0-2.5.467-2.5 3 0 2.667-.333 3-3 3-2.533 0-3 .389-3 2.5 0 2-.5 2.5-2.5 2.5s-2.5.5-2.5 2.5-.5 2.5-2.5 2.5H74v38h2.5c1.978 0 2.5.505 2.5 2.421 0 1.843.674 2.568 2.825 3.041 2.095.46 2.806 1.191 2.75 2.829-.057 1.69.572 2.283 2.675 2.525 2.16.249 2.75.839 2.75 2.75 0 1.93.518 2.434 2.5 2.434 1.97 0 2.5.507 2.5 2.393 0 2.377 2.348 4.128 4.09 3.051.505-.312.91 1.913.91 4.997V96h-5c-4.63 0-5 .18-5 2.434 0 1.911-.59 2.501-2.75 2.75-1.978.227-2.75.878-2.75 2.316 0 1.329-.836 2.171-2.492 2.508-1.647.336-2.664 1.353-3 3-.279 1.371-1.07 2.537-1.758 2.592-.687.055-1.7.167-2.25.25-.55.083-1 2.625-1 5.65v5.5h21v2.5c0 2.364.3 2.5 5.5 2.5h5.5V164.867l-2.75.317c-2.546.292-2.75.65-2.75 4.816 0 3.998-.279 4.557-2.5 5.007-2.393.486-2.512.859-2.79 8.75-.283 8.011-.36 8.243-2.75 8.243-2.281 0-2.46.359-2.46 4.934 0 4.638-.164 4.952-2.75 5.25-2.172.25-2.756.841-2.779 2.816-.025 2.073-.446 2.44-2.47 2.15-1.342-.193-6.166-.04-10.72.34l-8.281.69v7.34c0 6.851-.15 7.362-2.25 7.66-2.193.312-2.257.669-2.528 14.07L57.944 251h5.357c4.913 0 5.351.187 5.278 2.25l-.079 2.25 58.75.258 58.75.258v-2.508c0-2.373.295-2.508 5.5-2.508h5.5v-28.233l-2.5.478c-2.494.476-2.5.458-2.5-7.322v-7.8l-4.628-.694c-2.545-.382-7.495-.427-11-.099l-6.372.595v-2.963c0-2.493-.396-2.962-2.5-2.962-2 0-2.5-.5-2.5-2.5 0-1.982-.504-2.5-2.434-2.5-1.911 0-2.501-.59-2.75-2.75-.251-2.182-.832-2.75-2.816-2.75-2.417 0-2.517-.267-3-8-.469-7.512-.637-7.995-2.75-7.921-2.062.073-2.25-.366-2.25-5.25 0-5.018-.146-5.329-2.5-5.329H144v-37h5c4.648 0 5-.173 5-2.466 0-2.451.066-2.468 10.75-2.75l10.75-.284.183-4.982c.192-5.231-.897-6.873-3.933-5.928-1.405.437-1.75-.061-1.75-2.523 0-2.605-.377-3.067-2.5-3.067-2 0-2.5-.5-2.5-2.5s-.5-2.5-2.5-2.5-2.5-.5-2.5-2.5c0-2.187-.469-2.525-3.75-2.697-2.062-.109-5.662-.086-8 .05L144 96.1v-5.609c0-3.114.405-5.359.91-5.047 1.742 1.077 4.09-.674 4.09-3.051 0-1.886.53-2.393 2.5-2.393 1.982 0 2.5-.504 2.5-2.434 0-1.91.59-2.501 2.745-2.75 2.004-.231 2.882-.991 3.25-2.816.278-1.375 1.068-2.545 1.755-2.6 2.927-.234 3.25-.522 3.25-2.9 0-2 .5-2.5 2.5-2.5h2.5V26h-2.5c-2 0-2.5-.5-2.5-2.5s-.5-2.5-2.5-2.5-2.5-.5-2.5-2.5c0-2.397-1.182-3.038-4.75-2.575-.762.099-1.25-1.026-1.25-2.881 0-2.58-.381-3.044-2.5-3.044-2 0-2.5-.5-2.5-2.5s-.5-2.5-2.5-2.5-2.5-.5-2.5-2.5V0h-44v2.5" fill="#1976D2" fill-rule="evenodd"/><path fill-opacity=".641" d="M100.816 2.75c-.254 2.207-.76 2.688-2.566 2.437-1.912-.266-2.25.148-2.25 2.75C96 10.674 95.68 11 93 11c-2.533 0-3 .389-3 2.5 0 2-.5 2.5-2.5 2.5s-2.5.5-2.5 2.5c0 1.982-.504 2.5-2.434 2.5-1.911 0-2.501.59-2.75 2.75-.248 2.16-.906 2.818-3.066 3.066l-2.75.317V64h3c2.533 0 3 .389 3 2.5 0 2 .5 2.5 2.5 2.5s2.5.5 2.5 2.5.5 2.5 2.5 2.5c2.111 0 2.5.467 2.5 3 0 2.667.333 3 3 3 2.533 0 3 .389 3 2.5 0 2 .5 2.5 2.5 2.5 2.364 0 2.5.3 2.5 5.5V96h-5.5c-5.134 0-5.5.159-5.5 2.392 0 1.698-.704 2.568-2.431 3.001-1.516.381-2.55 1.456-2.75 2.859-.205 1.444-1.124 2.362-2.569 2.568-1.629.231-2.25.99-2.25 2.75 0 2.033-.49 2.43-3 2.43-2.931 0-3 .115-3 4.966v4.966l10.75.284 10.75.284.316 2.75c.298 2.586.612 2.75 5.25 2.75H106v18.43c0 18.352-.01 18.432-2.25 18.75-1.96.279-2.289.996-2.552 5.57-.278 4.821-.502 5.25-2.75 5.25-2.393 0-2.448.179-2.448 8v8h-3c-2.97 0-3 .056-3 5.5 0 5.2-.136 5.5-2.5 5.5-2 0-2.5.5-2.5 2.5v2.5H64.084l-.292 7.743c-.277 7.357-.417 7.768-2.792 8.25l-2.5.507-.143 12.75-.143 12.75h5.393c5.329 0 5.393.036 5.393 3.008v3.008l58.25-.258 58.25-.258.316-2.75c.302-2.624.566-2.75 5.75-2.75H197v-26h-6v-16h-21v-2.5c0-2.344-.849-2.942-3.681-2.591-.649.081-1.324-1.103-1.5-2.631-.251-2.19-.901-2.845-3.069-3.094-2.16-.249-2.75-.839-2.75-2.75 0-1.93-.518-2.434-2.5-2.434-2.458 0-2.5-.133-2.5-8 0-7.821-.055-8-2.448-8-2.248 0-2.472-.429-2.75-5.25-.282-4.897-.487-5.271-3.052-5.566l-2.75-.317v-36.762l5.25-.303c4.897-.282 5.271-.487 5.566-3.052l.317-2.75H175v-5c0-4.667-.167-5-2.5-5-2 0-2.5-.5-2.5-2.5 0-1.982-.504-2.5-2.434-2.5-1.911 0-2.501-.59-2.75-2.75-.248-2.16-.906-2.818-3.066-3.066-2.16-.249-2.75-.839-2.75-2.75 0-2.376-.192-2.434-8-2.434h-8v-5.5c0-5.444.03-5.5 3-5.5 2.533 0 3-.389 3-2.5 0-2 .5-2.5 2.5-2.5 2.111 0 2.5-.467 2.5-3s.389-3 2.5-3c2 0 2.5-.5 2.5-2.5 0-2.111.467-2.5 3-2.5s3-.389 3-2.5c0-2 .5-2.5 2.5-2.5h2.5V27.133l-2.75-.317c-1.512-.174-2.806-.878-2.875-1.566-.069-.687-.181-1.925-.25-2.75-.075-.9-1.125-1.5-2.625-1.5-2 0-2.5-.5-2.5-2.5s-.5-2.5-2.5-2.5-2.5-.5-2.5-2.5c0-1.982-.504-2.5-2.434-2.5-1.911 0-2.501-.59-2.75-2.75-.25-2.178-.836-2.753-2.816-2.764-1.976-.011-2.566-.587-2.816-2.75L142.867 0h-41.734l-.317 2.75" fill="#1976D2" fill-rule="evenodd"/><path fill-opacity=".383" d="M101 3.5c0 2-.5 2.5-2.5 2.5-1.821 0-2.5.535-2.5 1.971 0 1.848.826 1.988 13.25 2.25l13.25.279.316 2.75c.249 2.16.839 2.75 2.75 2.75 2.298 0 2.433.321 2.42 5.75-.018 7.699-.799 10.165-3.428 10.825-1.465.367-2.179 1.285-2.131 2.739.056 1.664-.584 2.262-2.677 2.502-2.171.25-2.75.836-2.75 2.784v2.468l-10.75-.284c-10.288-.272-10.764-.381-11.07-2.534-.231-1.629-.99-2.25-2.75-2.25-2.419 0-2.43-.047-2.43-10.5V17h-2.5c-2 0-2.5.5-2.5 2.5s-.5 2.5-2.5 2.5-2.5.5-2.5 2.5-.5 2.5-2.5 2.5H75v36h2.5c2.111 0 2.5.467 2.5 3s.389 3 2.5 3c2 0 2.5.5 2.5 2.5 0 2.111.467 2.5 3 2.5s3 .389 3 2.5c0 2 .5 2.5 2.5 2.5 2.111 0 2.5.467 2.5 3s.389 3 2.5 3c2.333 0 2.5.333 2.5 5v5l9.75.015c5.362.009 10.222.346 10.798.75.577.404 1.027 1.86 1 3.235-.055 2.869.605 2.743-15.19 2.894-11.012.105-11.148.135-11.769 2.606-.405 1.614-1.329 2.5-2.608 2.5-1.446 0-1.981.675-1.981 2.5 0 2.111-.467 2.5-3 2.5-2.807 0-3.615-1.102-3.118-4.25.065-.413-1.007-.75-2.382-.75-2 0-2.5.5-2.5 2.5s-.5 2.5-2.5 2.5c-2.333 0-2.5.333-2.5 5v5h10.5c10.474 0 10.5.006 10.5 2.448 0 2.248.429 2.472 5.25 2.75l5.25.302v47l8 .564c7.095.5 6.501.584-5.25.75L96 176v31l3.75.09c2.063.049 12.75.278 23.75.508l20 .419V213.5l-35 .074c-19.25.041-36.013.153-37.25.25-2.01.157-2.25.71-2.25 5.176v5H59v26l55.75.241 55.75.24-50.75.269c-49.916.264-50.75.301-50.75 2.259 0 1.965.755 1.991 57.883 1.991 56.487 0 57.896-.047 58.392-1.944.393-1.504-.089-2.036-2.133-2.35-1.453-.224.846-.474 5.108-.556L196 250v-26h-2.5c-2.458 0-2.5-.133-2.5-8v-8h-22.233l.478-2.5c.419-2.196.129-2.5-2.384-2.5-2.385 0-2.861-.416-2.861-2.5 0-2-.5-2.5-2.5-2.5-2.124 0-2.5-.462-2.5-3.07 0-2.596-.341-3.02-2.209-2.75-1.325.192-2.519 1.321-2.984 2.82-.484 1.558-.616.29-.352-3.363.233-3.225.163-8.063-.155-10.75-.51-4.306-.859-4.887-2.939-4.887-2.166 0-2.361-.412-2.361-5 0-4.667-.167-5-2.5-5H143v-39h5.5c5.2 0 5.5-.136 5.5-2.5V122h21v-5c0-4.667-.167-5-2.5-5-2 0-2.5-.5-2.5-2.5 0-2.111-.467-2.5-3-2.5s-3-.389-3-2.5c0-2-.5-2.5-2.5-2.5-2.111 0-2.5-.467-2.5-3v-3h-16v-5.5c0-5.16.15-5.5 2.434-5.5 1.911 0 2.501-.59 2.75-2.75.248-2.16.906-2.818 3.066-3.066 2.16-.249 2.75-.839 2.75-2.75 0-1.93.518-2.434 2.5-2.434 2 0 2.5-.5 2.5-2.5s.5-2.5 2.5-2.5c2.111 0 2.5-.467 2.5-3 0-2.667.333-3 3-3h3V27h-3c-2.591 0-3.009-.375-3.063-2.75-.061-2.629-.103-2.652-.962-.517-1.43 3.555-3.975 1.778-3.975-2.774 0-3.431-.284-3.859-2.75-4.143-2.268-.261-2.743-.798-2.711-3.066.034-2.352-.364-2.75-2.75-2.75-2.308 0-2.789-.431-2.789-2.5 0-2-.5-2.5-2.5-2.5s-2.5-.5-2.5-2.5V1h-42v2.5m-10 10c0 1.833.533 2.5 2 2.5s2-.667 2-2.5-.533-2.5-2-2.5-2 .667-2 2.5m69.638 10c.317.825.753 1.5.969 1.5.216 0 .393-.675.393-1.5s-.436-1.5-.969-1.5c-.532 0-.709.675-.393 1.5" fill="#1976D2" fill-rule="evenodd"/></svg>